<?xml version="1.0" standalone="no"?>
<!DOCTYPE svg PUBLIC "-//W3C//DTD SVG 20010904//EN"
 "http://www.w3.org/TR/2001/REC-SVG-20010904/DTD/svg10.dtd">
<svg version="1.0" xmlns="http://www.w3.org/2000/svg"
 width="500.000000pt" height="500.000000pt" viewBox="0 0 500.000000 500.000000"
 preserveAspectRatio="xMidYMid meet">
<metadata>
Created by potrace 1.14, written by Peter Selinger 2001-2017
</metadata>
<g transform="translate(0.000000,500.000000) scale(0.100000,-0.100000)"
fill="#000000" stroke="none">
<path d="M2274 4871 c-3 -3 -15 -6 -27 -7 -20 -1 -33 -3 -107 -20 -14 -3 -31
-6 -37 -6 -7 -1 -13 -6 -13 -11 0 -5 -13 -7 -29 -5 -20 3 -32 -1 -40 -15 -7
-10 -17 -17 -23 -15 -7 3 -20 -4 -30 -14 -10 -10 -23 -16 -28 -13 -6 4 -13 -1
-16 -9 -3 -9 -10 -14 -14 -11 -4 3 -13 -2 -20 -10 -7 -8 -19 -15 -27 -15 -8 0
-11 -5 -7 -12 4 -6 3 -8 -3 -5 -13 8 -75 -21 -86 -40 -5 -7 -12 -11 -18 -8 -5
4 -9 1 -9 -5 0 -6 -4 -9 -9 -5 -5 3 -12 -4 -16 -15 -4 -11 -10 -18 -15 -15
-10 6 -36 -34 -32 -48 1 -5 -2 -6 -7 -3 -5 4 -16 0 -24 -8 -8 -8 -19 -12 -23
-8 -5 4 -6 3 -2 -2 4 -5 -2 -22 -13 -37 -11 -16 -17 -29 -13 -29 4 0 1 -6 -8
-12 -9 -7 -27 -40 -41 -73 -13 -33 -28 -69 -32 -80 -5 -11 -7 -23 -7 -27 1 -5
-3 -8 -8 -8 -5 0 -9 -3 -8 -7 1 -5 -9 -42 -22 -83 -25 -78 -30 -95 -34 -120
-1 -8 -6 -24 -9 -36 -4 -11 -9 -43 -11 -70 -2 -27 -5 -53 -6 -59 -1 -5 -2 -12
-1 -15 9 -29 15 -176 12 -285 -1 -51 3 -100 9 -100 1 0 3 -10 4 -22 2 -13 0
-23 -3 -23 -11 0 -6 -255 6 -275 14 -26 44 -53 63 -57 29 -6 37 -25 44 -103 9
-107 15 -154 27 -191 5 -17 12 -41 14 -54 5 -24 53 -121 64 -130 4 -3 17 -22
30 -42 12 -21 26 -38 30 -38 11 0 52 -83 68 -140 3 -8 5 -38 6 -66 1 -58 -28
-108 -79 -134 -16 -8 -32 -19 -36 -25 -4 -5 -8 -6 -8 -1 0 5 -6 4 -12 -2 -7
-5 -29 -19 -48 -30 -82 -46 -235 -136 -240 -142 -8 -8 -43 -29 -67 -40 -13 -5
-23 -14 -23 -20 0 -5 -3 -9 -7 -8 -13 3 -63 -24 -58 -32 2 -4 -1 -7 -8 -7 -13
0 -190 -123 -195 -135 -2 -5 -7 -8 -12 -8 -8 0 -102 -41 -206 -91 -22 -10 -44
-19 -49 -19 -5 0 -16 -7 -25 -15 -10 -9 -27 -17 -38 -20 -79 -15 -137 -93
-157 -212 -3 -18 -17 -74 -31 -125 -14 -51 -26 -101 -26 -110 1 -10 -4 -20 -9
-23 -5 -4 -7 -10 -4 -15 8 -12 -25 -154 -37 -161 -6 -4 -6 -9 1 -14 9 -5 9
-10 0 -21 -6 -8 -9 -14 -5 -14 3 0 1 -11 -4 -24 -5 -13 -11 -41 -15 -63 -3
-21 -8 -50 -11 -63 -2 -14 -7 -38 -10 -55 -2 -16 -7 -41 -9 -55 -4 -23 -13
-106 -19 -175 -1 -17 -5 -35 -7 -40 -3 -6 -7 -50 -8 -100 -2 -49 -5 -108 -8
-130 -2 -22 -6 -71 -9 -110 -2 -38 -6 -82 -7 -98 l-4 -27 2359 0 2358 0 0 569
c0 500 -2 574 -16 612 -9 24 -16 54 -15 67 0 13 -5 33 -11 45 -7 12 -13 24
-13 27 -1 9 -60 95 -70 102 -5 4 -6 8 -1 8 5 0 4 6 -1 13 -5 6 -9 32 -9 57 1
25 -2 47 -6 50 -18 14 -29 148 -17 208 4 18 3 32 -3 32 -5 0 -8 6 -5 13 14 39
-72 212 -117 237 -14 7 -26 17 -26 22 0 5 -5 6 -10 3 -6 -3 -10 -1 -10 5 0 6
-4 9 -9 5 -5 -3 -12 -1 -16 5 -3 5 -13 10 -21 10 -8 0 -33 9 -57 19 -23 11
-62 25 -87 31 -25 7 -52 15 -60 18 -8 3 -26 7 -40 8 -34 5 -58 9 -100 17 -76
15 -96 18 -130 22 -92 9 -167 17 -190 21 -14 3 -37 6 -51 7 -15 2 -45 15 -68
30 -22 15 -45 27 -51 27 -5 0 -10 4 -10 8 0 5 -16 14 -35 22 -19 8 -35 18 -35
22 0 5 -4 7 -9 4 -5 -4 -11 -3 -13 2 -6 14 -152 70 -203 78 -27 4 -85 8 -128
9 -57 1 -83 5 -97 18 -11 9 -20 14 -20 11 0 -3 -7 1 -15 10 -8 8 -15 16 -15
19 0 2 -27 31 -59 65 -60 61 -62 67 -44 122 2 8 4 15 3 15 -1 0 3 12 9 27 5
15 13 53 16 85 13 127 26 222 34 252 5 16 15 26 27 27 61 2 96 33 110 97 16
72 16 75 13 117 -2 26 10 163 17 195 4 17 6 55 5 85 -4 107 -3 155 3 185 11
55 13 175 3 175 -5 0 -5 6 2 13 6 8 8 17 4 21 -7 7 -12 25 -18 66 -1 14 -4 27
-5 30 -1 3 -3 10 -4 15 -10 51 -19 85 -25 85 -3 0 -7 10 -7 23 -3 44 -8 77
-14 77 -5 0 -10 27 -13 67 0 7 -6 14 -13 17 -8 3 -11 12 -8 21 4 8 1 15 -7 15
-7 0 -10 3 -6 6 3 4 0 19 -9 35 -8 16 -12 29 -9 29 3 0 -6 11 -20 25 -14 14
-25 32 -25 40 0 8 -5 14 -10 12 -6 -1 -16 9 -23 23 -7 14 -23 26 -35 28 -12 2
-20 8 -17 13 4 5 -1 12 -10 15 -9 4 -37 27 -61 51 -25 24 -49 41 -53 38 -5 -3
-11 2 -15 10 -3 8 -12 15 -21 15 -8 0 -15 4 -15 9 0 7 -24 18 -46 20 -2 0 -12
7 -20 16 -9 8 -24 15 -34 15 -10 0 -22 5 -26 11 -3 6 -15 9 -25 6 -11 -3 -17
-1 -14 3 3 5 -13 11 -35 15 -22 4 -40 10 -40 15 0 4 -10 6 -22 6 -13 -1 -31 4
-40 12 -14 11 -18 12 -18 2 0 -8 -6 -10 -17 -5 -39 16 -223 24 -223 11 0 -7
-3 -8 -8 -1 -7 10 -59 15 -68 6z"/>
</g>
</svg>
